<?xml version="1.0" encoding="UTF-8" standalone="no"?>
<!DOCTYPE svg PUBLIC "-//W3C//DTD SVG 1.1//EN" "http://www.w3.org/Graphics/SVG/1.1/DTD/svg11.dtd">
<svg width="393" height="120" viewBox="0 0 393 120" version="1.1" xmlns="http://www.w3.org/2000/svg" stroke-linecap="round" stroke-linejoin="round">
    <g fill="none" stroke="#000" stroke-width="0.8">
        <rect x="18.5" y="42.357" width="32" height="16"/>
        <rect x="82.5" y="42.357" width="16" height="16"/>
        <rect x="130.5" y="42.357" width="32" height="16"/>
        <rect x="194.5" y="42.357" width="176" height="16"/>
        <path d="M34.5,42.357L34.5,58.357"/>
        <path d="M146.5,42.357L146.5,58.357"/>
        <path d="M210.5,42.357L210.5,58.357"/>
        <path d="M226.5,42.357L226.5,58.357"/>
        <path d="M242.5,42.357L242.5,58.357"/>
        <path d="M258.5,42.357L258.5,58.357"/>
        <path d="M274.5,42.357L274.5,58.357"/>
        <path d="M290.5,42.357L290.5,58.357"/>
        <path d="M306.5,42.357L306.5,58.357"/>
        <path d="M322.5,42.357L322.5,58.357"/>
        <path d="M338.5,42.357L338.5,58.357"/>
        <path d="M354.5,42.357L354.5,58.357"/>
        <path d="M179.245,44.214C185.392,44.231 190.787,47.68 193.83,52.857C190.824,57.971 185.521,61.4 179.466,61.497C181.102,59.045 182.049,56.135 182.049,53.017C182.049,49.761 181.016,46.733 179.245,44.214Z"/>
        <path d="M115.245,44.214C121.392,44.231 126.787,47.68 129.83,52.857C126.824,57.971 121.521,61.4 115.466,61.497C117.102,59.045 118.049,56.135 118.049,53.017C118.049,49.761 117.016,46.733 115.245,44.214Z"/>
        <path d="M67.245,44.214C73.392,44.231 78.787,47.68 81.83,52.857C78.824,57.971 73.521,61.4 67.466,61.497C69.102,59.045 70.049,56.135 70.049,53.017C70.049,49.761 69.016,46.733 67.245,44.214Z"/>
        <path d="M176.396,44.214C178.167,46.733 179.201,49.761 179.201,53.017C179.201,56.135 178.253,59.045 176.617,61.497"/>
        <path d="M112.396,44.214C114.167,46.733 115.201,49.761 115.201,53.017C115.201,56.135 114.253,59.045 112.617,61.497"/>
        <path d="M64.396,44.214C66.167,46.733 67.201,49.761 67.201,53.017C67.201,56.135 66.253,59.045 64.617,61.497"/>
        <path d="M162.623,47.357L177.339,47.357"/>
        <path d="M98.623,47.357L113.339,47.357"/>
        <path d="M50.623,47.357L65.339,47.357"/>
        <path d="M166.5,70.357L166.5,58.357L177.339,58.357"/>
        <path d="M102.5,70.357L102.5,58.357L113.339,58.357"/>
        <path d="M54.5,70.357L54.5,58.357L65.339,58.357"/>
        <path d="M18.5,50.357L10.5,50.357L10.5,70.357L377.5,70.357L377.5,50.357L370.5,50.357"/>
        <path d="M275.5,67.357L272.5,70.357L275.5,73.357"/>
    </g>
    <g>
        <circle cx="166.5" cy="70.357" r="0.99"/>
        <circle cx="102.5" cy="70.357" r="0.99"/>
        <circle cx="54.5" cy="70.357" r="0.99"/>
    </g>
    <g fill="none" stroke="#999" stroke-width="0.8">
        <circle cx="42.5" cy="50.5" r="4"/>
        <circle cx="138.5" cy="50.5" r="4"/>
        <circle cx="234.5" cy="50.5" r="4"/>
        <circle cx="298.5" cy="50.5" r="4"/>
        <circle cx="330.5" cy="50.5" r="4"/>
        <circle cx="218.5" cy="50.5" r="4"/>
        <circle cx="314.5" cy="50.5" r="4"/>
        <circle cx="346.5" cy="50.5" r="4"/>
        <path d="M26.5,46.5L26.5,54.5"/>
        <path d="M202.5,46.5L202.5,54.5"/>
        <path d="M266.5,46.5L266.5,54.5"/>
        <path d="M154.5,46.5L154.5,54.5"/>
        <path d="M250.5,46.5L250.5,54.5"/>
        <path d="M282.5,46.5L282.5,54.5"/>
        <path d="M362.5,46.5L362.5,54.5"/>
        <path d="M90.5,46.5L90.5,54.5"/>
    </g>
    <g font-family="ArialMT, Arial, sans-serif" font-size="14">
        <text x="18.72px" y="39.028px">16</text>
        <text x="82.273px" y="39.028px">14</text>
        <text x="130.273px" y="39.028px">13</text>
        <text x="195.792px" y="39.028px">11</text>
        <text x="358.166px" y="39.028px">1</text>
    </g>
</svg>
